<svg xmlns="http://www.w3.org/2000/svg" xmlns:xlink="http://www.w3.org/1999/xlink" width="76.779" height="64.076" viewBox="0 0 76.779 64.076"><defs><style>.a{fill:#fff;fill-rule:evenodd;}.b{filter:url(#a);}</style><filter id="a" x="0" y="0" width="76.779" height="64.076" filterUnits="userSpaceOnUse"><feOffset dy="3" input="SourceAlpha"/><feGaussianBlur stdDeviation="3" result="b"/><feFlood flood-opacity="0.161"/><feComposite operator="in" in2="b"/><feComposite in="SourceGraphic"/></filter></defs><g class="b" transform="matrix(1, 0, 0, 1, 0, 0)"><path class="a" d="M1248.552-344.944a2.559,2.559,0,0,1-.583.915L1227.646-323.7a2.614,2.614,0,0,1-3.7,0,2.614,2.614,0,0,1,0-3.7l16.02-16.021h-47.417a2.556,2.556,0,0,1-2.555-2.556,2.556,2.556,0,0,1,2.555-2.556h47.419l-16.023-16.023a2.614,2.614,0,0,1,0-3.7,2.614,2.614,0,0,1,3.7,0l20.322,20.322a2.621,2.621,0,0,1,.585.92,2.537,2.537,0,0,1,.225,1.032,2.5,2.5,0,0,1-.227,1.032Z" transform="translate(-1181 375.02)"/></g></svg>