<svg xmlns="http://www.w3.org/2000/svg" width="32" height="32" viewBox="0 0 32 32"><defs><style>.a{fill:#fff;}.b,.d{fill:none;}.b{stroke:#707070;}.c{stroke:none;}</style></defs><g transform="translate(-1123 -5345)"><path class="a" d="M9,6.623a4.615,4.615,0,1,0,4.615,4.615A4.608,4.608,0,0,0,9,6.623Zm0,7.615a3,3,0,1,1,3-3A3.006,3.006,0,0,1,9,14.238Zm5.88-7.8A1.076,1.076,0,1,1,13.8,5.358,1.074,1.074,0,0,1,14.879,6.434Zm3.057,1.092a5.327,5.327,0,0,0-1.454-3.772A5.362,5.362,0,0,0,12.71,2.3c-1.486-.084-5.94-.084-7.427,0a5.354,5.354,0,0,0-3.772,1.45A5.344,5.344,0,0,0,.058,7.522c-.084,1.486-.084,5.94,0,7.427A5.327,5.327,0,0,0,1.512,18.72a5.369,5.369,0,0,0,3.772,1.454c1.486.084,5.94.084,7.427,0a5.327,5.327,0,0,0,3.772-1.454,5.362,5.362,0,0,0,1.454-3.772c.084-1.486.084-5.936,0-7.423Zm-1.92,9.017A3.038,3.038,0,0,1,14.3,18.255c-1.185.47-4,.361-5.306.361s-4.125.1-5.306-.361a3.038,3.038,0,0,1-1.711-1.711c-.47-1.185-.361-4-.361-5.306s-.1-4.125.361-5.306A3.038,3.038,0,0,1,3.693,4.221c1.185-.47,4-.361,5.306-.361s4.125-.1,5.306.361a3.038,3.038,0,0,1,1.711,1.711c.47,1.185.361,4,.361,5.306S16.486,15.363,16.016,16.544Z" transform="translate(1130.006 5349.762)"/><g class="b" transform="translate(1123 5345)"><rect class="c" width="32" height="32"/><rect class="d" x="0.5" y="0.5" width="31" height="31"/></g></g></svg>