<svg xmlns="http://www.w3.org/2000/svg" width="32" height="32" viewBox="0 0 32 32"><defs><style>.a{fill:#fff;}.b,.d{fill:none;}.b{stroke:#707070;}.c{stroke:none;}</style></defs><g transform="translate(-1163 -5345)"><path class="a" d="M16.714,2.25H1.282A1.291,1.291,0,0,0,0,3.548v15.4a1.291,1.291,0,0,0,1.282,1.3H16.714A1.3,1.3,0,0,0,18,18.952V3.548A1.3,1.3,0,0,0,16.714,2.25ZM5.44,17.679H2.772V9.088H5.444v8.59ZM4.106,7.915A1.547,1.547,0,1,1,5.653,6.368,1.548,1.548,0,0,1,4.106,7.915Zm11.334,9.763H12.773V13.5c0-1-.02-2.278-1.386-2.278-1.39,0-1.6,1.085-1.6,2.206v4.251H7.116V9.088H9.675v1.173h.036a2.81,2.81,0,0,1,2.527-1.386c2.7,0,3.2,1.78,3.2,4.094Z" transform="translate(1170 5349.75)"/><g class="b" transform="translate(1163 5345)"><rect class="c" width="32" height="32"/><rect class="d" x="0.5" y="0.5" width="31" height="31"/></g></g></svg>