<svg xmlns="http://www.w3.org/2000/svg" xmlns:xlink="http://www.w3.org/1999/xlink" width="70" height="70" viewBox="0 0 70 70"><defs><style>.a,.b{fill:none;}.a{clip-rule:evenodd;}.c{clip-path:url(#a);}.d{clip-path:url(#b);}.e{fill:#ff7171;}.f{clip-path:url(#c);}.g{fill:#fff;}</style><clipPath id="a"><path class="a" d="M1097-570a35,35,0,0,0,35-35,35,35,0,0,0-35-35,35,35,0,0,0-35,35A35,35,0,0,0,1097-570Z"/></clipPath><clipPath id="b"><path class="b" d="M0,2486H1440V-1688H0Z"/></clipPath><clipPath id="c"><path class="a" d="M1083.049-592.75h7.145l4.764-8.983v-13.475h-14.291v13.475h7.145Zm18.375,0h7.145l4.764-8.983v-13.475h-14.291v13.475h7.145Z"/></clipPath></defs><g transform="translate(-1062 -1938)"><g class="c" transform="translate(0 2578)"><g class="d"><path class="e" d="M1057-645h80v80h-80Z"/></g></g><g class="f" transform="translate(0 2578)"><g class="d"><path class="g" d="M1075.667-620.208h42.666v32.458h-42.666Z"/></g></g></g></svg>