<svg xmlns="http://www.w3.org/2000/svg" width="32" height="32" viewBox="0 0 32 32"><defs><style>.a{fill:#fff;}.b,.d{fill:none;}.b{stroke:#707070;}.c{stroke:none;}</style></defs><g transform="translate(-1203 -5345)"><path class="a" d="M20.545,6.691a2.5,2.5,0,0,0-1.76-1.772C17.232,4.5,11.006,4.5,11.006,4.5s-6.226,0-7.779.419a2.5,2.5,0,0,0-1.76,1.772,26.245,26.245,0,0,0-.416,4.824,26.245,26.245,0,0,0,.416,4.824,2.465,2.465,0,0,0,1.76,1.743c1.553.419,7.779.419,7.779.419s6.226,0,7.779-.419a2.465,2.465,0,0,0,1.76-1.743,26.245,26.245,0,0,0,.416-4.824,26.245,26.245,0,0,0-.416-4.824ZM8.969,14.475V8.554l5.2,2.961Z" transform="translate(1208.949 5349.5)"/><g class="b" transform="translate(1203 5345)"><rect class="c" width="32" height="32"/><rect class="d" x="0.5" y="0.5" width="31" height="31"/></g></g></svg>